<svg width="149" height="54" viewBox="0 0 149 54" fill="none" xmlns="http://www.w3.org/2000/svg">
<rect x="0.348846" y="9" width="35.4651" height="35.4651" fill="#0F53FA"/>
<rect x="7" y="31.2326" width="29" height="14" fill="#FEA06C"/>
<rect y="21.2326" width="18" height="24" fill="#FFD166"/>
<path d="M70.4688 38H75.1563L82.4688 15.5H79.0938L72.7813 34.6875L66.5313 15.5H63.1563L70.4688 38ZM83.0977 26.8437V29.4687H92.4727V26.8437H83.0977ZM108.316 15.5V22.375C107.004 21.2812 105.254 20.6562 103.41 20.6562C101.098 20.6562 98.9102 21.5938 97.5039 23.3437C96.1602 25.0625 95.5977 27.2812 95.5977 29.5625C95.5977 31.8125 96.0977 34 97.5039 35.75C98.9102 37.5 101.066 38.4688 103.348 38.4688C105.441 38.4688 107.348 37.7812 108.691 36.4062V38H111.598V15.5H108.316ZM107.41 33.9687C106.535 35 105.254 35.5 103.785 35.5C102.379 35.5 100.973 34.9687 100.129 33.75C99.3477 32.6875 99.0664 31.1562 99.0664 29.5625C99.0664 27.9375 99.3789 26.4062 100.16 25.3437C101.004 24.125 102.348 23.625 103.91 23.625C105.316 23.625 106.598 24.0937 107.41 25.1562C108.316 26.25 108.691 27.875 108.691 29.5625C108.691 31.2187 108.316 32.875 107.41 33.9687ZM129.678 38V27.7812C129.678 25.7187 129.178 23.7187 127.584 22.375C126.428 21.375 124.646 20.6562 122.896 20.6562C120.021 20.6562 117.803 21.5938 116.053 23.5L118.021 25.6562C119.303 24.25 120.865 23.75 122.615 23.75C124.803 23.75 126.24 24.8125 126.396 26.7812C123.521 27.2187 120.084 27.5625 117.99 28.5625C115.865 29.5937 115.021 31.1562 115.021 33.3125C115.021 36.4687 117.271 38.4688 120.584 38.4688C123.303 38.4688 125.209 37.7187 126.803 35.5937V38H129.678ZM125.803 33.2812C124.928 34.7812 123.303 35.6875 121.271 35.6875C119.553 35.6875 118.271 34.625 118.271 33.0625C118.271 31.5937 119.709 30.7187 121.396 30.3437C122.709 30.0625 124.553 29.7187 126.428 29.4375C126.428 30.9375 126.459 32.1875 125.803 33.2812ZM146.992 25.5625C146.43 23.875 145.086 22.2812 143.461 21.5C142.336 20.9062 141.055 20.6562 139.898 20.6562C138.711 20.6562 137.492 20.75 136.242 21.2812C134.586 22 133.336 23.5937 133.336 25.5312C133.336 26.3437 133.617 27.5312 134.336 28.3125C135.117 29.125 136.242 29.625 137.242 30C138.055 30.2812 138.742 30.4687 141.148 31.1562C142.648 31.5937 144.086 32 144.086 33.3437C144.086 34 143.773 34.5 143.211 34.9062C142.555 35.375 141.242 35.5937 140.336 35.5937C139.086 35.5937 137.836 35.25 136.961 34.375C136.398 33.8437 136.023 33.0625 135.773 32.2812L132.805 33.125C133.086 34.1875 133.617 35.3125 134.617 36.375C136.148 37.9687 138.086 38.4688 140.305 38.4688C141.93 38.4688 143.43 38.2188 144.836 37.3437C146.211 36.5 147.086 34.9062 147.086 33.3437C147.086 30.625 144.93 28.9687 141.93 28.1562C140.586 27.7812 139.586 27.5 138.648 27.2187C137.273 26.8437 136.336 26.4687 136.336 25.4062C136.336 24.2187 138.023 23.4687 139.711 23.5312C141.586 23.5625 143.18 24.4062 143.898 26.3125L146.992 25.5625Z" fill="#8A91A3"/>
</svg>
